<svg xmlns="http://www.w3.org/2000/svg" xmlns:xlink="http://www.w3.org/1999/xlink" version="1.0" id="Layer_1" x="0px" y="0px" viewBox="0 0 655.6 71.6" enable-background="new 0 0 655.6 71.6" xml:space="preserve" width="260" height="48">
<path fill="#ED1D8F" d="M0.8,63.2l6.8-12.3c2.2,1.9,5.3,3.7,9,3.7c5.1,0,8.3-3.3,8.3-8.5V5.1H41v41.1c0,15.5-9.4,22.6-23.1,22.6  C11.7,68.8,5.5,67.3,0.8,63.2z"/>
<path fill="#ED1D8F" d="M49.9,42.4V5.1h16.4v36.7c0,7.4,4.5,12.8,13.2,12.8c8.6,0,13.1-5.3,13.1-12.8V5.1H109v37.1  c0,15.6-9.4,26.5-29.4,26.5C59.5,68.8,49.9,57.7,49.9,42.4z"/>
<path fill="#ED1D8F" d="M113.4,58.9l8.5-12.6c4.5,4.5,11.4,8.3,20.1,8.3c5.4,0,8.8-1.9,8.8-5c0-8.3-35.4-1.4-35.4-25.5  c0-10.5,8.8-19.9,24.9-19.9c10,0,18.8,3,25.4,8.7L156.9,25c-5.3-4.4-12.1-6.6-18.3-6.6c-4.7,0-6.8,1.6-6.8,4.3  c0,7.7,35.4,1.9,35.4,25.1c0,12.6-9.3,20.9-26.1,20.9C128.5,68.8,119.7,64.8,113.4,58.9z"/>
<path fill="#ED1D8F" d="M187.9,67.7V19.2h-17.5V5.1h51.1v14.1h-17.4v48.5H187.9z"/>
<path fill="#1F181A" d="M262.1,36.4c0-19.2,14.2-32.4,32.2-32.4c11.1,0,18.8,5.3,23.7,12.4l-6.5,3.7c-3.6-5.3-10.1-9.1-17.3-9.1  c-13.7,0-24.1,10.4-24.1,25.4c0,14.8,10.4,25.4,24.1,25.4c7.1,0,13.7-3.8,17.3-9.1l6.6,3.6c-5.3,7.2-12.8,12.5-23.8,12.5  C276.3,68.8,262.1,55.6,262.1,36.4z"/>
<path fill="#1F181A" d="M380.5,67.6V5.1h41V12h-33.2v20.2h32.5v6.9h-32.5v21.6h33.2v6.9H380.5z"/>
<path fill="#1F181A" d="M477.1,67.6l-5.5-14h-31.1l-5.5,14H426l25.2-62.6h9.7L486,67.6H477.1z M456,13l-13.2,33.8h26.5L456,13z"/>
<path fill="#1F181A" d="M497.5,67.6V12h-19.8V5.1h47.5V12h-19.9v55.6H497.5z"/>
<path fill="#1F181A" d="M533.2,67.6V5.1h7.8v62.6H533.2z"/>
<path fill="#1F181A" d="M573.4,67.6L548.1,5.1h8.9l21.1,54l21.1-54h8.9L583,67.6H573.4z"/>
<path fill="#1F181A" d="M614,67.6V5.1h41V12h-33.2v20.2h32.5v6.9h-32.5v21.6H655v6.9H614z"/>
<path fill="#ED1D8F" d="M232.8,6.8v12.4H231V6.8h-4V5.1h9.7v1.7H232.8z M251,19.2V7.6l-4.8,11.6h-0.5l-4.8-11.6v11.6h-1.8V5.1h2.8  l4.1,10.2L250,5.1h2.8v14.1H251z"/>
<path fill="#1F181A" d="M355.7,42.1c8.5-0.8,16.3-6.9,16.3-18.2c0-11.5-8.3-18.9-19.7-18.9h-25.1v62.6h7.8V47.2v-4.4v-6.8v-1.5V12  h16.4c7.4,0,12.6,4.8,12.6,11.9c0,7-5.2,12-12.6,12h-3.8h-4.4l20.2,31.7h9.2L355.7,42.1z"/>
</svg>