<?xml version="1.0" encoding="UTF-8"?>
<svg xmlns="http://www.w3.org/2000/svg" viewBox="0 0 76 76">
  <defs>
    <style>.cls-1{fill:#fff;}.cls-2{fill:#4dbdeb;}.cls-3{fill:#00405c;}.cls-4{fill:#0075a8;}.cls-5{fill:#ffd262;}</style>
  </defs>
  <title>BacklinkAudit</title>
  <g id="Artboards">
    <g id="Full_Color" data-name="Full Color">
      <g id="Backlink_Audit" data-name="Backlink Audit">
        <g id="Container">
          <circle class="cls-1" cx="38" cy="38" r="31"></circle>
          <path id="Circle" class="cls-2" d="M38,10A28,28,0,1,1,10,38,28,28,0,0,1,38,10m0-2A30,30,0,1,0,68,38,30,30,0,0,0,38,8Z"></path>
        </g>
        <g id="Illustration">
          <path id="Link-Upper" class="cls-3" d="M38.57,28.21a8.75,8.75,0,0,0-4,.75l-4.18-4.13a6.65,6.65,0,0,0-6,6L36.52,42.86a6.59,6.59,0,0,0,4-1.92,6.32,6.32,0,0,0,1.08-1.4L44.09,42A13,13,0,0,1,43,43.33a10,10,0,0,1-7.1,2.94h-.69L21.05,32.16v-.7a10,10,0,0,1,10-10h.69Z"></path>
          <g id="Link-Lower">
            <path class="cls-4" d="M44,33.6l-3.1-3.11h-.7a10,10,0,0,0-7.1,2.94,11.21,11.21,0,0,0-1.14,1.34l2.45,2.45a7,7,0,0,1,1.08-1.4,6.62,6.62,0,0,1,4-1.92L51.55,46a6.65,6.65,0,0,1-6,6l-4.18-4.13a8.67,8.67,0,0,1-4,.76l6.78,6.78h.7a10,10,0,0,0,10-10v-.7L52.3,42A8.86,8.86,0,0,1,44,33.6Z"></path>
          </g>
          <g id="Check">
            <path class="cls-5" d="M52.76,25.22A7.88,7.88,0,1,0,60.6,33.1,7.86,7.86,0,0,0,52.76,25.22Zm4.67,6.47-5.85,5.44a1,1,0,0,1-.68.27h-.07a1,1,0,0,1-.71-.38L48,34.36a1,1,0,0,1,.16-1.4,1,1,0,0,1,1.4.15L51,34.93l5.05-4.7a1,1,0,1,1,1.37,1.46Z"></path>
          </g>
        </g>
      </g>
    </g>
  </g>
</svg>
