<?xml version="1.0" encoding="UTF-8"?>
<svg xmlns="http://www.w3.org/2000/svg" viewBox="0 0 76 76">
  <defs>
    <style>.cls-1{fill:#fff;}.cls-2{fill:#4dbdeb;}.cls-3{fill:#00405c;}.cls-4{fill:#0075a8;}.cls-5{fill:#ffd262;}</style>
  </defs>
  <title>KeywordResearch</title>
  <g id="Artboards">
    <g id="Full_Color" data-name="Full Color">
      <g id="Keyword_Research" data-name="Keyword Research">
        <g id="Container">
          <circle id="Background" class="cls-1" cx="38" cy="38" r="31"></circle>
          <path id="Circle" class="cls-2" d="M38,10A28,28,0,1,1,10,38,28,28,0,0,1,38,10m0-2A30,30,0,1,0,68,38,30,30,0,0,0,38,8Z"></path>
        </g>
        <g id="Illustration">
          <g id="Query_Box" data-name="Query Box">
            <g id="Text_Field" data-name="Text Field">
              <path id="Box-02" class="cls-3" d="M50.25,47a11.72,11.72,0,0,1,.58,2H63.75c.28-.65.53-1.32.76-2Z"></path>
              <path id="Box-01" class="cls-3" d="M64.15,28c-.26-.68-.55-1.35-.86-2H17a3,3,0,0,0-3,3V46a3,3,0,0,0,3,3H29.19a11.68,11.68,0,0,1,.57-2H18V28Z"></path>
            </g>
            <path id="Cursor" class="cls-3" d="M61.5,44a.5.5,0,0,1-.5-.5v-13a.5.5,0,0,1,1,0v13A.5.5,0,0,1,61.5,44Z"></path>
            <g id="Keyword">
              <path id="d" class="cls-4" d="M57.55,40.88a.31.31,0,0,1-.32-.23l-.1-.49a3.27,3.27,0,0,1-.33.32,2.26,2.26,0,0,1-.38.25,2.11,2.11,0,0,1-.44.17,2.57,2.57,0,0,1-.5.05,1.77,1.77,0,0,1-.77-.17,1.82,1.82,0,0,1-.6-.51,2.4,2.4,0,0,1-.39-.82,4.23,4.23,0,0,1-.14-1.12,3.27,3.27,0,0,1,.16-1.06,2.54,2.54,0,0,1,.44-.85,2.09,2.09,0,0,1,.7-.56,1.94,1.94,0,0,1,.91-.21,1.79,1.79,0,0,1,.73.14,1.84,1.84,0,0,1,.55.37V33.45H58.3v7.43ZM55.9,40a1.24,1.24,0,0,0,.66-.16,1.92,1.92,0,0,0,.51-.45v-2.3a1.26,1.26,0,0,0-.46-.36,1.36,1.36,0,0,0-.53-.11,1.19,1.19,0,0,0-.51.11,1,1,0,0,0-.39.32,1.69,1.69,0,0,0-.24.54,3.37,3.37,0,0,0-.08.77,3.33,3.33,0,0,0,.07.76,1.51,1.51,0,0,0,.21.51.83.83,0,0,0,.33.29A1.18,1.18,0,0,0,55.9,40Z"></path>
              <path id="r" class="cls-4" d="M49.85,40.88V35.75h.73a.37.37,0,0,1,.26.07.34.34,0,0,1,.1.24l.08.62a2.39,2.39,0,0,1,.64-.75,1.32,1.32,0,0,1,.83-.28,1,1,0,0,1,.63.18l-.16.92a.2.2,0,0,1-.06.13.21.21,0,0,1-.14,0,.58.58,0,0,1-.2,0,1.69,1.69,0,0,0-.35,0,1.06,1.06,0,0,0-.66.21,1.6,1.6,0,0,0-.46.62v3.2Z"></path>
              <path id="o" class="cls-4" d="M46.36,35.67a2.87,2.87,0,0,1,1,.18,2.33,2.33,0,0,1,.8.53,2.24,2.24,0,0,1,.51.83,3.42,3.42,0,0,1,0,2.19,2.37,2.37,0,0,1-.51.84,2.33,2.33,0,0,1-.8.53,2.87,2.87,0,0,1-1,.18,2.93,2.93,0,0,1-1-.18,2.33,2.33,0,0,1-.8-.53A2.54,2.54,0,0,1,44,39.4a3.42,3.42,0,0,1,0-2.19,2.4,2.4,0,0,1,.52-.83,2.33,2.33,0,0,1,.8-.53A2.93,2.93,0,0,1,46.36,35.67Zm0,4.33a1.07,1.07,0,0,0,.94-.43,2.09,2.09,0,0,0,.31-1.26,2.13,2.13,0,0,0-.31-1.26,1.07,1.07,0,0,0-.94-.44,1.09,1.09,0,0,0-1,.44,2.72,2.72,0,0,0,0,2.52A1.08,1.08,0,0,0,46.36,40Z"></path>
              <path id="w" class="cls-4" d="M38.65,40.09l.76-2.39c0-.1.05-.2.08-.29l.06-.3.06.29.09.29L40.42,40a11,11,0,0,1,1.64.18l1.41-4.45h-.93a.38.38,0,0,0-.22.06.25.25,0,0,0-.12.17l-.76,2.74a4,4,0,0,0-.11.44c0,.15,0,.29-.08.43l-.1-.4c0-.14-.07-.28-.12-.42L40.19,36a.33.33,0,0,0-.12-.17.38.38,0,0,0-.22-.06H39.3a.37.37,0,0,0-.21.06A.33.33,0,0,0,39,36l-.85,2.75c0,.15-.09.29-.13.44l-.12.43c0-.15,0-.29-.07-.43s-.06-.29-.1-.44L37,36a.33.33,0,0,0-.12-.17.45.45,0,0,0-.24-.06h-1l1.47,4.64A13.67,13.67,0,0,1,38.65,40.09Z"></path>
              <path id="y" class="cls-4" d="M32.74,42.29a.48.48,0,0,1-.14.2.49.49,0,0,1-.27.06h-.92l1-2L30.3,35.75h1.08a.33.33,0,0,1,.23.07.48.48,0,0,1,.12.16l1.09,2.66a1.69,1.69,0,0,1,.1.27c0,.09,0,.18.07.28a2.29,2.29,0,0,1,.08-.28c0-.09.07-.18.11-.28l1-2.65a.36.36,0,0,1,.13-.17.37.37,0,0,1,.21-.06h1Z"></path>
              <path id="e" class="cls-4" d="M27.86,35.67a2.62,2.62,0,0,1,.9.15A2,2,0,0,1,29.92,37a2.69,2.69,0,0,1,.16,1,1.7,1.7,0,0,1,0,.24.26.26,0,0,1-.05.14.2.2,0,0,1-.08.08l-.14,0H26.63a1.79,1.79,0,0,0,.42,1.16A1.37,1.37,0,0,0,28,40a2,2,0,0,0,.52-.07,2.72,2.72,0,0,0,.38-.16l.29-.15a.43.43,0,0,1,.23-.07.25.25,0,0,1,.13,0,.39.39,0,0,1,.1.08l.36.45a2.22,2.22,0,0,1-.46.41,3.71,3.71,0,0,1-.53.26,2.93,2.93,0,0,1-.57.13,3.6,3.6,0,0,1-.56,0,2.9,2.9,0,0,1-1-.17,2.2,2.2,0,0,1-.8-.53,2.43,2.43,0,0,1-.54-.86,3.34,3.34,0,0,1-.19-1.19,2.62,2.62,0,0,1,.17-1,2.35,2.35,0,0,1,.48-.81,2.27,2.27,0,0,1,.78-.54A2.46,2.46,0,0,1,27.86,35.67Zm0,.88a1.14,1.14,0,0,0-.85.31,1.53,1.53,0,0,0-.39.86H29a1.63,1.63,0,0,0-.06-.45,1.1,1.1,0,0,0-.2-.37.94.94,0,0,0-.34-.25A1.06,1.06,0,0,0,27.89,36.55Z"></path>
              <path id="k" class="cls-4" d="M21.78,33.45V37.7H22a.47.47,0,0,0,.19,0,.58.58,0,0,0,.15-.13L23.63,36a.52.52,0,0,1,.18-.15.44.44,0,0,1,.25-.06h1.13l-1.6,1.9a1,1,0,0,1-.17.19,1.56,1.56,0,0,1-.2.16,1.54,1.54,0,0,1,.19.17l.16.22,1.71,2.49H24.16a.57.57,0,0,1-.24-.05.48.48,0,0,1-.18-.17l-1.31-1.95a.53.53,0,0,0-.15-.15.61.61,0,0,0-.22,0h-.28v2.35H20.54V33.45Z"></path>
            </g>
          </g>
          <g id="Search">
            <path id="Search-2" data-name="Search" class="cls-5" d="M47.74,57.33a10,10,0,1,0-1.41,1.41L50.59,63c.62-.31,1.23-.65,1.82-1Zm-2.08-.67A8,8,0,1,1,48,51,7.95,7.95,0,0,1,45.66,56.66Z"></path>
            <g id="Bar_Graph" data-name="Bar Graph">
              <rect id="Right" class="cls-2" x="43" y="52" width="2" height="3" transform="translate(88 107) rotate(180)"></rect>
              <rect id="Center" class="cls-2" x="39" y="47" width="2" height="8" transform="translate(80 102) rotate(180)"></rect>
              <rect id="Left" class="cls-2" x="35" y="50" width="2" height="5" transform="translate(72 105) rotate(180)"></rect>
            </g>
          </g>
        </g>
      </g>
    </g>
  </g>
</svg>
