<?xml version="1.0" encoding="UTF-8"?>
<svg xmlns="http://www.w3.org/2000/svg" viewBox="0 0 76 76">
  <defs>
    <style>.cls-1{fill:#fff;}.cls-2{fill:#4dbdeb;}.cls-3{fill:#00405c;}.cls-4{fill:#0075a8;}.cls-5{fill:#ffd262;}</style>
  </defs>
  <title>SearchVisibility</title>
  <g id="Artboards">
    <g id="Full_Color" data-name="Full Color">
      <g id="Search_Visibility" data-name="Search Visibility">
        <g id="Container">
          <circle id="Background" class="cls-1" cx="38" cy="38" r="31"></circle>
          <path id="Circle" class="cls-2" d="M38,10A28,28,0,1,1,10,38,28,28,0,0,1,38,10m0-2A30,30,0,1,0,68,38,30,30,0,0,0,38,8Z"></path>
        </g>
        <g id="Illustration">
          <g id="Eye">
            <g id="Outline">
              <path id="Bottom" class="cls-3" d="M34.13,41a29.16,29.16,0,0,0,11.32-2.63,13.1,13.1,0,0,0,1.16-2.74A29.23,29.23,0,0,1,34.13,39a29.14,29.14,0,0,1-12.48-3.38,13,13,0,0,0,1.16,2.75A29.16,29.16,0,0,0,34.13,41Z"></path>
              <path id="Right" class="cls-3" d="M52.14,31.58l.62.42-.6.41A18.06,18.06,0,0,1,51.9,35a44.26,44.26,0,0,0,4.23-3,44.37,44.37,0,0,0-4.22-2.95A17.89,17.89,0,0,1,52.14,31.58Z"></path>
              <path id="Top" class="cls-3" d="M34.13,25a29.14,29.14,0,0,1,12.48,3.38,12.46,12.46,0,0,0-1.16-2.75A29.16,29.16,0,0,0,34.13,23a29.16,29.16,0,0,0-11.32,2.63,13.65,13.65,0,0,0-1.16,2.74A29.27,29.27,0,0,1,34.13,25Z"></path>
              <path id="Left" class="cls-3" d="M16.16,32.44,15.5,32l.66-.45A18,18,0,0,1,16.4,29a46.27,46.27,0,0,0-4.27,3,46.27,46.27,0,0,0,4.27,3A18.18,18.18,0,0,1,16.16,32.44Z"></path>
            </g>
            <path id="Eyeball" class="cls-4" d="M29.89,38.54a21.67,21.67,0,0,0,4.24.46,21.67,21.67,0,0,0,4.24-.46,7.79,7.79,0,0,0,0-13.08A21.67,21.67,0,0,0,34.13,25a21.67,21.67,0,0,0-4.24.46,7.79,7.79,0,0,0,0,13.08Z"></path>
          </g>
          <path id="Search" class="cls-5" d="M47.17,42.89A17,17,0,1,0,45.05,45L57.81,57.77c.7-.71,1.37-1.46,2-2.24ZM44,41.9a14,14,0,1,1,0-19.8A14,14,0,0,1,44,41.9Z"></path>
        </g>
      </g>
    </g>
  </g>
</svg>
