<?xml version="1.0" encoding="UTF-8"?>
<svg xmlns="http://www.w3.org/2000/svg" viewBox="0 0 76 76">
  <defs>
    <style>.cls-1{fill:#fff;}.cls-2{fill:#4dbdeb;}.cls-3{fill:#d7e7ed;}.cls-4{fill:#0075a8;}.cls-5{fill:#00405c;}.cls-6{fill:#ffd262;}</style>
  </defs>
  <title>Traffic</title>
  <g id="Artboards">
    <g id="Full_Color" data-name="Full Color">
      <g id="Traffic">
        <g id="Container">
          <path id="Background" class="cls-1" d="M65.11,12.73A5,5,0,0,0,66,2.8a5.07,5.07,0,0,0-.86-.07,5,5,0,0,0-4,8l-2.49,4.17a31.19,31.19,0,1,0,2.9,3l3-5.12A3.77,3.77,0,0,0,65.11,12.73Z"></path>
          <path id="Circle" class="cls-2" d="M59.87,20.54A28,28,0,1,1,57,17.48l1-1.76a30,30,0,1,0,2.88,3Z"></path>
        </g>
        <g id="Illustration">
          <g id="Grid">
            <g id="Row-06">
              <path id="Dash-09" class="cls-3" d="M45.26,63.5h-1a.5.5,0,1,1,0-1h1a.5.5,0,0,1,0,1Z"></path>
              <path id="Dash-06" class="cls-3" d="M33.18,62.5h-.92a.5.5,0,1,0,0,1h.92Z"></path>
              <path id="Dash-05" class="cls-3" d="M29.42,62.53v.94a.49.49,0,0,0,0-.94Z"></path>
            </g>
            <g id="Row-05">
              <path id="Dash-13" class="cls-3" d="M61.26,52.5h-1a.5.5,0,1,0,0,1h1.05c.14-.22.28-.43.42-.66A.5.5,0,0,0,61.26,52.5Z"></path>
              <path id="Dash-12" class="cls-3" d="M57.26,53.5h-1a.5.5,0,1,1,0-1h1a.5.5,0,0,1,0,1Z"></path>
              <path id="Dash-09-2" data-name="Dash-09" class="cls-3" d="M45.26,53.5h-1a.5.5,0,1,1,0-1h1a.5.5,0,0,1,0,1Z"></path>
              <path id="Dash-06-2" data-name="Dash-06" class="cls-3" d="M33.18,52.5h-.92a.5.5,0,1,0,0,1h.92Z"></path>
              <path id="Dash-05-2" data-name="Dash-05" class="cls-3" d="M29.42,52.53v.94a.49.49,0,0,0,0-.94Z"></path>
              <path id="Dash-03" class="cls-3" d="M20,52.59a.48.48,0,0,0-.24.41.47.47,0,0,0,.24.41Z"></path>
              <path id="Dash-02" class="cls-3" d="M17.26,53.5h-1a.5.5,0,0,1,0-1h1a.5.5,0,1,1,0,1Z"></path>
            </g>
            <g id="Row-04">
              <path id="Dash-14" class="cls-3" d="M65.26,42.5h-1a.5.5,0,0,0,0,1h1a.45.45,0,0,0,.2,0c.06-.27.1-.55.15-.82A.48.48,0,0,0,65.26,42.5Z"></path>
              <path id="Dash-13-2" data-name="Dash-13" class="cls-3" d="M61.26,43.5h-1a.5.5,0,1,1,0-1h1a.5.5,0,0,1,0,1Z"></path>
              <path id="Dash-12-2" data-name="Dash-12" class="cls-3" d="M57.26,43.5h-1a.5.5,0,1,1,0-1h1a.5.5,0,0,1,0,1Z"></path>
              <path id="Dash-06-3" data-name="Dash-06" class="cls-3" d="M33.18,42.5h-.92a.5.5,0,1,0,0,1h.92Z"></path>
              <path id="Dash-05-3" data-name="Dash-05" class="cls-3" d="M29.46,42.54v.92a.5.5,0,0,0,0-.92Z"></path>
              <path id="Dash-02-2" data-name="Dash-02" class="cls-3" d="M16.26,43.5h.52l.84-.85a.51.51,0,0,0-.36-.15h-1a.5.5,0,0,0,0,1Z"></path>
              <path id="Dash-01" class="cls-3" d="M13.26,43.5h-1a.5.5,0,1,1,0-1h1a.5.5,0,0,1,0,1Z"></path>
            </g>
            <g id="Row-03">
              <path id="Dash-14-2" data-name="Dash-14" class="cls-3" d="M64.26,32.5a.5.5,0,0,0,0,1h1a.48.48,0,0,0,.35-.14c0-.27-.09-.55-.15-.82a.65.65,0,0,0-.2,0Z"></path>
              <path id="Dash-13-3" data-name="Dash-13" class="cls-3" d="M61.26,33.5h-1a.5.5,0,1,1,0-1h1a.5.5,0,0,1,0,1Z"></path>
              <path id="Dash-12-3" data-name="Dash-12" class="cls-3" d="M57.26,33.5h-1a.5.5,0,1,1,0-1h1a.5.5,0,0,1,0,1Z"></path>
              <path id="Dash-10" class="cls-3" d="M48.08,32.54a.5.5,0,0,0-.32.46s0,0,0,0Z"></path>
              <path id="Dash-09-3" data-name="Dash-09" class="cls-3" d="M45.26,33.5h-1a.5.5,0,1,1,0-1h1a.5.5,0,0,1,0,1Z"></path>
              <path id="Dash-08" class="cls-3" d="M41.26,33.5h-1a.5.5,0,1,1,0-1h1a.5.5,0,0,1,0,1Z"></path>
              <path id="Dash-07" class="cls-3" d="M37.26,33.5h-1a.5.5,0,1,1,0-1h1a.5.5,0,0,1,0,1Z"></path>
              <path id="Dash-04" class="cls-3" d="M25.26,33.5h-1a.5.5,0,0,1,0-1h1a.5.5,0,1,1,0,1Z"></path>
              <path id="Dash-03-2" data-name="Dash-03" class="cls-3" d="M21.26,33.5h-1a.5.5,0,0,1,0-1h1a.5.5,0,1,1,0,1Z"></path>
              <path id="Dash-02-3" data-name="Dash-02" class="cls-3" d="M17.26,33.5h-1a.5.5,0,0,1,0-1h1a.5.5,0,1,1,0,1Z"></path>
              <path id="Dash-01-2" data-name="Dash-01" class="cls-3" d="M13.26,33.5h-1a.5.5,0,1,1,0-1h1a.5.5,0,0,1,0,1Z"></path>
            </g>
            <g id="Row-02">
              <path id="Dash-13-4" data-name="Dash-13" class="cls-3" d="M60.26,22.5a.5.5,0,1,0,0,1h1a.5.5,0,0,0,.47-.33l-.42-.66H60.26Z"></path>
              <path id="Dash-11" class="cls-3" d="M52.26,23.5h1a.44.44,0,0,0,.23-.06l.27-.46a.5.5,0,0,0-.5-.48h-1a.5.5,0,1,0,0,1Z"></path>
              <path id="Dash-10-2" data-name="Dash-10" class="cls-3" d="M49.26,23.5h-1a.5.5,0,1,1,0-1h1a.5.5,0,0,1,0,1Z"></path>
              <path id="Dash-09-4" data-name="Dash-09" class="cls-3" d="M45.26,23.5h-1a.5.5,0,1,1,0-1h1a.5.5,0,0,1,0,1Z"></path>
              <path id="Dash-08-2" data-name="Dash-08" class="cls-3" d="M41.26,23.5h-1a.5.5,0,0,1,0-1h1a.5.5,0,0,1,0,1Z"></path>
              <path id="Dash-07-2" data-name="Dash-07" class="cls-3" d="M37.26,23.5h-1a.5.5,0,0,1,0-1h1a.5.5,0,0,1,0,1Z"></path>
              <path id="Dash-06-4" data-name="Dash-06" class="cls-3" d="M33.26,23.5h-1a.5.5,0,0,1,0-1h1a.5.5,0,0,1,0,1Z"></path>
              <path id="Dash-05-4" data-name="Dash-05" class="cls-3" d="M29.26,23.5h-1a.5.5,0,0,1,0-1h1a.5.5,0,1,1,0,1Z"></path>
              <path id="Dash-04-2" data-name="Dash-04" class="cls-3" d="M25.26,23.5h-1a.5.5,0,0,1,0-1h1a.5.5,0,1,1,0,1Z"></path>
              <path id="Dash-03-3" data-name="Dash-03" class="cls-3" d="M21.26,23.5h-1a.5.5,0,0,1,0-1h1a.5.5,0,1,1,0,1Z"></path>
              <path id="Dash-02-4" data-name="Dash-02" class="cls-3" d="M17.26,23.5h-1a.5.5,0,0,1,0-1h1a.5.5,0,1,1,0,1Z"></path>
            </g>
            <g id="Row-01">
              <path id="Dash-10-3" data-name="Dash-10" class="cls-3" d="M49.26,13.5h-1a.5.5,0,0,1,0-1h1a.5.5,0,0,1,0,1Z"></path>
              <path id="Dash-09-5" data-name="Dash-09" class="cls-3" d="M45.26,13.5h-1a.5.5,0,0,1,0-1h1a.5.5,0,0,1,0,1Z"></path>
              <path id="Dash-08-3" data-name="Dash-08" class="cls-3" d="M41.26,13.5h-1a.5.5,0,0,1,0-1h1a.5.5,0,0,1,0,1Z"></path>
              <path id="Dash-07-3" data-name="Dash-07" class="cls-3" d="M37.26,13.5h-1a.5.5,0,0,1,0-1h1a.5.5,0,0,1,0,1Z"></path>
              <path id="Dash-06-5" data-name="Dash-06" class="cls-3" d="M33.26,13.5h-1a.5.5,0,0,1,0-1h1a.5.5,0,0,1,0,1Z"></path>
              <path id="Dash-05-5" data-name="Dash-05" class="cls-3" d="M29.26,13.5h-1a.5.5,0,0,1,0-1h1a.5.5,0,1,1,0,1Z"></path>
              <path id="Dash-04-3" data-name="Dash-04" class="cls-3" d="M25.26,13.5a.5.5,0,0,0,.5-.5.41.41,0,0,0,0-.16c-.43.21-.85.43-1.27.66Z"></path>
            </g>
          </g>
          <g id="Bar_Chart" data-name="Bar Chart">
            <path id="Bar-Right" class="cls-2" d="M46.34,43.29a1.89,1.89,0,0,1-.2.27V64.79a28.18,28.18,0,0,0,9.42-5v-32Z"></path>
            <path id="Bar-Middle" class="cls-4" d="M33.18,36.42V65.58A28.42,28.42,0,0,0,38,66a27.81,27.81,0,0,0,4.6-.39V43.28Z"></path>
            <g id="Bar-Left">
              <path class="cls-5" d="M20,45.91V59.44a27.93,27.93,0,0,0,9.43,5.21V36.37Z"></path>
            </g>
          </g>
          <path id="Line" class="cls-6" d="M65.8,3.79a4,4,0,0,0-3.5,6.78l-18,30.25-13-9.44a1,1,0,0,0-1.3.11L12.41,49.35c.29.64.6,1.28.93,1.9L30.88,33.51,44,43.08a1,1,0,0,0,.79.17.94.94,0,0,0,.66-.47L64,11.56l.38.11A4,4,0,0,0,65.8,3.79Z"></path>
        </g>
      </g>
    </g>
  </g>
</svg>
